<svg width="234" height="234" viewBox="0 0 234 234" fill="none" xmlns="http://www.w3.org/2000/svg">
<style>
  path {
    fill: black;
  }
  @media (prefers-color-scheme: dark) {
    path {
      fill: white;
    }
  }
</style>
<path d="M191.075 106.275L161.675 135.575L191.075 164.875L220.475 135.575L191.075 106.275ZM112.975 176.575L83.575 147.275C81.475 145.175 77.975 145.175 75.875 147.275L46.475 176.575C44.375 178.675 40.875 178.675 38.775 176.575L1.575 139.475C-0.525 137.375 -0.525 133.875 1.575 131.675L75.875 57.575C77.975 55.475 81.475 55.475 83.575 57.575L112.975 86.875C115.075 88.975 118.575 88.975 120.675 86.875L150.075 57.575C152.175 55.475 155.675 55.475 157.775 57.575L179.375 79.175C181.475 81.275 181.475 84.775 179.375 86.975C177.275 89.075 173.775 89.075 171.675 86.975L157.775 73.175C155.675 71.075 152.175 71.075 150.075 73.175L128.475 94.775C126.375 96.875 126.375 100.375 128.475 102.575L150.075 123.975C152.175 126.075 155.675 126.075 157.775 123.975L187.175 94.675C189.275 92.575 192.775 92.575 194.875 94.675L231.975 131.775C234.075 133.875 234.075 137.375 231.975 139.575L194.975 176.575C192.875 178.675 189.375 178.675 187.275 176.575L157.875 147.275C155.775 145.175 152.275 145.175 150.175 147.275L120.775 176.575C118.575 178.775 115.075 178.775 112.975 176.575ZM87.475 135.675L116.875 164.975L146.275 135.675L116.875 106.375L87.475 135.675ZM61.975 110.175L79.675 127.875L109.075 98.575L79.675 69.175L13.175 135.675L42.575 164.975L71.975 135.675L54.275 117.975C52.175 115.875 52.175 112.375 54.275 110.175C56.375 108.075 59.875 108.075 61.975 110.175Z"/>
</svg>
