<svg width="810" height="200" viewBox="0 0 810 200" fill="none" xmlns="http://www.w3.org/2000/svg">
<path d="M285.3 149.8C281.4 149.8 278.1 148.9 275.6 147.1C273.1 145.3 271.8 143.3 271.8 141.2V58.2C271.8 55.7 273.1 53.6 275.6 52.1C278.1 50.6 281.4 49.8 285.3 49.8C288.7 49.8 291.5 50.6 293.8 52.1C296.1 53.6 297.3 55.7 297.3 58.2V64.5C299.7 60.4 303.2 56.7 307.8 53.4C312.4 50.1 318.3 48.5 325.3 48.5C331.3 48.5 336.7 50.5 341.3 54.4C345.9 58.3 349.4 63.4 351.6 69.6C355.2 62.4 359.9 57.1 365.6 53.7C371.3 50.3 377.1 48.5 383.2 48.5C389.7 48.5 395.7 50.2 401.4 53.4C407.1 56.7 411.7 61.5 415.3 67.9C418.9 74.3 420.7 82 420.7 91.2V141.1C420.7 143.2 419.4 145.2 416.7 147C414 148.8 410.8 149.7 407 149.7C403.3 149.7 400.2 148.8 397.5 147C394.8 145.2 393.5 143.2 393.5 141.1V91.2C393.5 87 392.7 83.5 391.1 80.7C389.5 77.9 387.3 75.8 384.7 74.3C382 72.8 379.3 72.1 376.5 72.1C373.7 72.1 371.1 72.8 368.6 74.3C366.1 75.8 364.1 77.9 362.4 80.7C360.7 83.5 359.9 86.9 359.9 91V141.3C359.9 144.2 358.5 146.4 355.6 147.7C352.7 149 349.6 149.7 346.2 149.7C343.1 149.7 340.1 149 337.1 147.7C334.2 146.4 332.7 144.2 332.7 141.3V91.2C332.7 87.3 331.9 83.9 330.3 81.1C328.7 78.3 326.6 76.1 324 74.6C321.4 73.1 318.6 72.3 315.7 72.3C312.9 72.3 310.2 73 307.7 74.4C305.2 75.8 303.1 77.9 301.5 80.7C299.9 83.5 299.1 87 299.1 91.2V141.1C299.1 143.2 297.8 145.2 295.1 147C292.4 148.8 289.1 149.8 285.3 149.8Z" fill="white"/>
<path d="M462.4 151.7C455 151.7 448.5 149.4 443.1 144.9C437.7 140.3 435 133.3 435 123.7C435 115.7 437.1 109.5 441.2 105C445.3 100.5 451.1 97.4 458.5 95.5C465.9 93.7 474.4 92.8 484.1 92.8H492.7V90C492.7 86.9 492.1 83.9 490.9 80.9C489.7 78 487.8 75.5 485.2 73.5C482.6 71.5 478.9 70.6 474.1 70.6C468.8 70.6 464.7 71.1 461.8 72.2C458.9 73.3 456.7 74.3 455.2 75.5C453.7 76.6 452 77.2 450.1 77.2C447.2 77.2 444.9 75.7 443.3 72.8C441.7 69.9 440.9 66.8 440.9 63.7C440.9 60.8 442.7 58.1 446.3 55.8C449.9 53.5 454.3 51.7 459.5 50.4C464.7 49.1 469.7 48.5 474.7 48.5C485.7 48.5 494.4 50.5 501 54.4C507.6 58.3 512.4 63.4 515.4 69.6C518.4 75.8 519.9 82.4 519.9 89.6V141.2C519.9 143.6 518.6 145.6 516.1 147.3C513.6 149 510.4 149.8 506.6 149.8C503.1 149.8 500.2 149 497.9 147.3C495.6 145.6 494.4 143.6 494.4 141.2V135C490.6 139.4 486.2 143.2 481 146.6C475.9 150 469.7 151.7 462.4 151.7ZM473.4 131.4C476.3 131.4 479.3 130.4 482.2 128.5C485.1 126.5 487.6 124 489.7 120.9C491.7 117.8 492.8 114.6 492.8 111.2V106.8H489.6C485 106.8 480.5 107.1 476.3 107.6C472.1 108.2 468.7 109.4 466.1 111.3C463.5 113.2 462.2 116.1 462.2 120C462.2 123.9 463.3 126.8 465.5 128.6C467.7 130.5 470.3 131.4 473.4 131.4Z" fill="white"/>
<path d="M553.4 149.8C549.6 149.8 546.5 148.9 543.9 147.1C541.4 145.3 540.1 143.3 540.1 141.2V58.1996C540.1 55.6996 541.4 53.5996 543.9 52.0996C546.4 50.5996 549.6 49.7996 553.4 49.7996C556.9 49.7996 559.8 50.5996 562.1 52.0996C564.4 53.5996 565.6 55.6996 565.6 58.1996V66.7996C567.1 63.6996 569.2 60.7996 571.8 58.0996C574.4 55.3996 577.4 53.0996 580.7 51.2996C584.1 49.4996 587.6 48.5996 591.4 48.5996H597.9C600.6 48.5996 602.9 49.7996 604.8 52.0996C606.8 54.3996 607.7 57.1996 607.7 60.3996C607.7 63.7996 606.7 66.5996 604.8 68.8996C602.8 71.1996 600.5 72.3996 597.9 72.3996H591.4C587.5 72.3996 583.6 73.6996 579.9 76.2996C576.2 78.8996 573.1 82.4996 570.7 86.9996C568.3 91.5996 567.1 97.0996 567.1 103.5V141.2C567.1 143.3 565.8 145.3 563.1 147.1C560.6 148.8 557.3 149.8 553.4 149.8Z" fill="white"/>
<path d="M657.4 196.3C649.1 196.3 641.4 195.1 634.3 192.8C627.2 190.5 621.5 187.1 617.2 182.6C612.9 178.1 610.8 172.8 610.8 166.6C610.8 161.3 612.3 156.7 615.2 153C618.1 149.3 621.8 146.4 626.1 144.3C623.4 143 621.3 141.4 619.7 139.2C618.1 137.1 617.3 134.3 617.3 130.8C617.3 126.9 618.3 123.7 620.4 121.2C622.4 118.7 625 116.5 628.1 114.4C623.9 111.2 620.7 107.3 618.4 102.7C616.2 98.0998 615 93.0998 615 87.5998V83.1998C615 76.2998 616.7 70.2998 620.1 65.0998C623.5 59.8998 628.3 55.7998 634.5 52.8998C640.7 49.9998 647.9 48.4998 656.1 48.4998C660.7 48.4998 665.1 48.9998 669.2 50.0998C673.3 51.1998 676.9 52.6998 680.2 54.5998C682.6 48.9998 684.8 45.1998 686.9 43.1998C689 41.1998 691 40.2998 693 40.2998C696.4 40.2998 699 41.2998 700.9 43.1998C702.8 45.1998 703.7 46.9998 703.7 48.6998C703.7 49.9998 703.4 51.0998 702.8 52.0998C702.2 53.0998 701.3 53.8998 700.2 54.5998C698.9 55.3998 697.4 56.4998 695.6 57.6998C693.8 58.8998 692.1 60.4998 690.5 62.5998C693 65.3998 694.9 68.4998 696.1 71.9998C697.3 75.3998 697.9 79.1998 697.9 83.2998V87.6998C697.9 94.3998 696.1 100.4 692.6 105.7C689.1 111 684.2 115.1 677.9 118.2C671.6 121.3 664.3 122.8 656.2 122.8C651.1 122.8 646.6 122.2 642.5 120.9C641.8 121.5 641.2 122.1 640.7 122.8C640.2 123.5 640 124.3 640 125.1C640 127.5 641.5 129.2 644.6 130.2C647.7 131.2 651.6 132 656.4 132.5C661.2 133.1 666.3 133.8 671.7 134.7C677.1 135.6 682.2 137.1 687 139C691.8 141 695.7 143.9 698.8 147.7C701.9 151.6 703.4 156.7 703.4 163.2C703.4 171.1 701.2 177.4 696.8 182.3C692.4 187.1 686.7 190.7 679.7 192.9C672.7 195.2 665.3 196.3 657.4 196.3ZM657 178.8C662.5 178.8 667.1 177.5 671 174.8C674.9 172.1 676.8 168.6 676.8 164.1C676.8 161.2 676 158.8 674.3 156.9C672.6 155.1 670.3 153.7 667.5 152.8C664.6 151.9 661.5 151.2 658.1 150.7C654.7 150.2 651.4 149.8 648 149.3C644.6 150.8 641.9 152.8 639.8 155.2C637.7 157.6 636.6 160.5 636.6 163.8C636.6 168.4 638.6 172.1 642.6 174.8C646.6 177.5 651.4 178.8 657 178.8ZM656.6 106.4C661.2 106.4 664.9 104.6 667.5 101.1C670.2 97.5998 671.5 93.0998 671.5 87.5998V83.1998C671.5 77.9998 670.2 73.6998 667.6 70.0998C665 66.5998 661.2 64.7998 656.3 64.7998C651.5 64.7998 647.8 66.5998 645.2 70.0998C642.6 73.5998 641.3 77.9998 641.3 83.1998V87.3998C641.3 92.6998 642.6 97.1998 645.2 100.9C647.9 104.6 651.7 106.4 656.6 106.4Z" fill="white"/>
<path d="M758.3 151.699C750.2 151.699 742.6 149.699 735.8 145.699C728.9 141.699 723.4 136.399 719.2 129.799C715 123.199 712.9 116.099 712.9 108.499V91.1994C712.9 83.5994 714.9 76.5994 719 69.9994C723.1 63.4994 728.6 58.1994 735.5 54.2994C742.4 50.3994 750.1 48.3994 758.3 48.3994C766.6 48.3994 774.2 50.2994 781.1 54.1994C788 58.0994 793.6 63.1994 797.7 69.6994C801.8 76.1994 803.9 83.2994 803.9 91.1994V108.499C803.9 115.899 801.8 122.999 797.6 129.599C793.4 136.199 787.8 141.499 780.9 145.599C774 149.599 766.4 151.699 758.3 151.699ZM758.3 127.899C761.7 127.899 764.8 126.999 767.6 125.199C770.4 123.399 772.7 120.999 774.3 117.899C776 114.899 776.8 111.799 776.8 108.499V91.1994C776.8 87.9994 776 84.9994 774.3 82.0994C772.6 79.2994 770.4 76.8994 767.7 74.9994C765 73.0994 761.8 72.1994 758.3 72.1994C754.9 72.1994 751.8 73.0994 749 74.8994C746.2 76.6994 744 79.0994 742.4 81.9994C740.8 84.8994 740 87.8994 740 91.1994V108.499C740 111.699 740.8 114.899 742.4 117.899C744 120.899 746.2 123.299 749 125.199C751.8 126.899 754.9 127.899 758.3 127.899Z" fill="white"/>
<path d="M195.1 88.3004L165.7 117.6L195.1 146.9L224.5 117.6L195.1 88.3004ZM117 158.6L87.5999 129.3C85.4999 127.2 81.9999 127.2 79.8999 129.3L50.4999 158.6C48.3999 160.7 44.8999 160.7 42.7999 158.6L5.5999 121.5C3.4999 119.4 3.4999 115.9 5.5999 113.7L79.8999 39.6004C81.9999 37.5004 85.4999 37.5004 87.5999 39.6004L117 68.9004C119.1 71.0004 122.6 71.0004 124.7 68.9004L154.1 39.6004C156.2 37.5004 159.7 37.5004 161.8 39.6004L183.4 61.2004C185.5 63.3004 185.5 66.8004 183.4 69.0004C181.3 71.1004 177.8 71.1004 175.7 69.0004L161.8 55.2004C159.7 53.1004 156.2 53.1004 154.1 55.2004L132.5 76.8004C130.4 78.9004 130.4 82.4004 132.5 84.6004L154.1 106C156.2 108.1 159.7 108.1 161.8 106L191.2 76.7004C193.3 74.6004 196.8 74.6004 198.9 76.7004L236 113.8C238.1 115.9 238.1 119.4 236 121.6L199 158.6C196.9 160.7 193.4 160.7 191.3 158.6L161.9 129.3C159.8 127.2 156.3 127.2 154.2 129.3L124.8 158.6C122.6 160.8 119.1 160.8 117 158.6ZM91.4999 117.7L120.9 147L150.3 117.7L120.9 88.4004L91.4999 117.7ZM65.9999 92.2004L83.6999 109.9L113.1 80.6004L83.6999 51.2004L17.1999 117.7L46.5999 147L75.9999 117.7L58.2999 100C56.1999 97.9004 56.1999 94.4004 58.2999 92.2004C60.3999 90.1004 63.8999 90.1004 65.9999 92.2004Z" fill="white"/>
</svg>
